<svg width="28" height="30" fill="none" xmlns="http://www.w3.org/2000/svg"><path d="M6.21 6.96h19.502a1 1 0 01.969 1.248l-1.54 6.022a3 3 0 01-2.906 2.257H7.86M0 1.5h3.832a2 2 0 011.975 1.685l2.56 16.088a2 2 0 001.975 1.686h14.222m-10.926 5.595c0 1.084-.84 1.915-1.82 1.915-.978 0-1.818-.831-1.818-1.915s.84-1.915 1.819-1.915c.978 0 1.819.83 1.819 1.915zm11.302 0c0 1.084-.84 1.915-1.819 1.915s-1.819-.831-1.819-1.915.84-1.915 1.82-1.915c.978 0 1.818.83 1.818 1.915z" stroke="#fff" stroke-width="1.5"/></svg>